<?xml version="1.0" encoding="UTF-8" standalone="no"?>
<!DOCTYPE svg PUBLIC "-//W3C//DTD SVG 1.1//EN" "http://www.w3.org/Graphics/SVG/1.1/DTD/svg11.dtd">
<svg width="100%" height="100%" viewBox="0 0 512 512" version="1.1" xmlns="http://www.w3.org/2000/svg" xmlns:xlink="http://www.w3.org/1999/xlink" xml:space="preserve" xmlns:serif="http://www.serif.com/" style="fill-rule:evenodd;clip-rule:evenodd;stroke-linejoin:round;stroke-miterlimit:2;">
    <g transform="matrix(1,0,0,1,-85.9557,82.4942)">
        <path d="M208.282,107.163C203.464,92.95 200.848,77.724 200.848,61.893C200.848,-15.987 264.076,-79.215 341.956,-79.215C419.835,-79.215 483.063,-15.987 483.063,61.893C483.063,79.606 479.789,96.561 473.819,112.188L473.809,112.215C473.693,112.515 473.577,112.815 473.461,113.115L356.317,416.378C354.024,422.314 348.316,426.228 341.953,426.227C335.59,426.226 329.883,422.31 327.592,416.374C327.592,416.374 212.339,117.713 212.348,117.734C210.856,114.279 209.499,110.753 208.282,107.163ZM237.444,97.279C238.419,100.157 239.51,102.981 240.712,105.747C240.797,105.943 240.877,106.14 240.954,106.338L341.963,368.086L444.741,102.012L444.752,101.985C444.855,101.719 444.957,101.453 445.06,101.187C449.722,88.979 452.272,75.731 452.272,61.893C452.272,1.007 402.841,-48.424 341.956,-48.424C281.071,-48.424 231.64,1.007 231.64,61.893C231.64,74.267 233.678,86.169 237.444,97.279ZM341.956,6.46C378.071,6.46 407.392,35.781 407.392,71.897C407.392,108.012 378.071,137.334 341.956,137.334C305.84,137.334 276.519,108.012 276.519,71.897C276.519,35.781 305.84,6.46 341.956,6.46ZM341.956,37.252C322.835,37.252 307.31,52.776 307.31,71.897C307.31,91.018 322.835,106.542 341.956,106.542C361.077,106.542 376.601,91.018 376.601,71.897C376.601,52.776 361.077,37.252 341.956,37.252Z"/>
    </g>
</svg>
