<?xml version="1.0" encoding="UTF-8" standalone="no"?>
<!DOCTYPE svg PUBLIC "-//W3C//DTD SVG 1.1//EN" "http://www.w3.org/Graphics/SVG/1.1/DTD/svg11.dtd">
<svg width="30px" height="30px" viewBox="0 0 512 512" version="1.1"   xml:space="preserve"  style="fill-rule:evenodd;clip-rule:evenodd;stroke-linejoin:round;stroke-miterlimit:2;">
    <path d="M501.305,144.883L501.305,391.367C501.305,400.09 497.839,408.457 491.671,414.625C485.502,420.794 477.136,424.259 468.413,424.259L44.201,424.259C35.478,424.259 27.112,420.794 20.943,414.625C14.775,408.457 11.309,400.09 11.309,391.367L11.309,144.883C11.309,136.159 14.775,127.793 20.943,121.624C27.112,115.456 35.478,111.99 44.201,111.99L468.413,111.99C477.136,111.99 485.502,115.456 491.671,121.624C497.839,127.793 501.305,136.159 501.305,144.883ZM484.954,398.959C485.686,397.126 486.089,395.126 486.089,393.032L486.089,143.217C486.089,140.767 485.537,138.445 484.552,136.368L340.612,251.482L484.954,398.959ZM472.104,127.334C471.44,127.25 470.764,127.206 470.078,127.206L42.536,127.206C41.85,127.206 41.174,127.25 40.51,127.334L222.01,272.487C242.063,288.524 270.551,288.524 290.604,272.487L472.104,127.334ZM27.66,398.959L172.002,251.482L28.062,136.368C27.077,138.445 26.525,140.767 26.525,143.217L26.525,393.032C26.525,395.126 26.928,397.126 27.66,398.959ZM473.675,408.637L328.972,260.791L299.866,284.068C274.398,304.436 238.216,304.436 212.748,284.068L183.642,260.791L38.939,408.637C40.095,408.902 41.299,409.043 42.536,409.043L470.078,409.043C471.314,409.043 472.519,408.902 473.675,408.637Z" fill="#fff"/>
</svg>
