<?xml version="1.0" encoding="UTF-8" standalone="no"?>
<!DOCTYPE svg PUBLIC "-//W3C//DTD SVG 1.1//EN" "http://www.w3.org/Graphics/SVG/1.1/DTD/svg11.dtd">
<svg width="100%" height="100%" viewBox="0 0 512 512" version="1.1" xmlns="http://www.w3.org/2000/svg" xmlns:xlink="http://www.w3.org/1999/xlink" xml:space="preserve" xmlns:serif="http://www.serif.com/" style="fill-rule:evenodd;clip-rule:evenodd;stroke-linejoin:round;stroke-miterlimit:2;">
    <path d="M509.285,144.883L509.285,391.367C509.285,402.207 504.979,412.603 497.314,420.268C489.649,427.934 479.253,432.24 468.413,432.24L44.201,432.24C33.361,432.24 22.965,427.934 15.3,420.268C7.635,412.603 3.328,402.207 3.328,391.367L3.328,144.883C3.328,134.042 7.635,123.646 15.3,115.981C22.965,108.316 33.361,104.01 44.201,104.01L468.413,104.01C479.253,104.01 489.649,108.316 497.314,115.981C504.979,123.646 509.285,134.042 509.285,144.883ZM34.12,151.432L34.12,380.949L160.127,252.205L34.12,151.432ZM449.989,134.801L62.625,134.801L226.995,266.254C244.133,279.96 268.481,279.96 285.619,266.254L449.989,134.801ZM478.494,380.949L478.494,151.432L352.487,252.205L478.494,380.949ZM57.142,401.448L455.472,401.448L328.319,271.533L304.851,290.301C276.468,313 236.146,313 207.763,290.301L184.295,271.533L57.142,401.448Z"/>
</svg>
