<svg xmlns="http://www.w3.org/2000/svg" width="23.521" height="23.521" viewBox="0 0 23.521 23.521">
  <g id="phone-solid" transform="translate(0.75 0.811)">
    <path id="Path_16" data-name="Path 16" d="M7.079,1.036a1.712,1.712,0,0,0-2.035-1L1.266,1.07A1.722,1.722,0,0,0,0,2.727,19.234,19.234,0,0,0,19.233,21.96a1.722,1.722,0,0,0,1.657-1.266l1.03-3.778a1.712,1.712,0,0,0-1-2.035L16.8,13.163a1.712,1.712,0,0,0-1.988.5l-1.734,2.116a14.509,14.509,0,0,1-6.9-6.9L8.3,7.149a1.713,1.713,0,0,0,.5-1.988L7.079,1.04Z" transform="translate(0 0)" fill="none" stroke="#fff" stroke-linejoin="round" stroke-miterlimit="2" stroke-width="1.5"/>
  </g>
</svg>
